<svg xmlns="http://www.w3.org/2000/svg" fill="none" viewBox="0 0 22 21"><path fill="#686868" stroke="#686868" d="M18.55 15.214H1.576c.845-.785 1.357-1.738 1.684-2.762.38-1.191.516-2.51.645-3.76.028-.268.055-.532.084-.79.17-1.512.408-2.876 1.083-3.971.656-1.064 1.76-1.929 3.796-2.352l.653-.136-.24-.451a.992.992 0 0 1 .134-.197c.16-.184.363-.3.574-.295.22.006.442.141.613.337.026.03.048.058.067.084l-.509.446.97.211c2.129.463 3.249 1.298 3.889 2.293.657 1.022.86 2.286.992 3.73.023.249.043.502.064.76.185 2.285.394 4.869 2.477 6.853z"/><path fill="#686868" stroke="#00A095" stroke-width=".4" d="M13.572 17.857H6.43S8.606 20 10 20s3.572-2.143 3.572-2.143z"/></svg>